<svg width="64" height="65" viewBox="0 0 64 65" fill="none" xmlns="http://www.w3.org/2000/svg">
<path d="M52.0025 26.0013C52.0025 31.7391 50.14 37.0393 47.0023 41.3395L62.8281 57.1778C64.3906 58.7404 64.3906 61.278 62.8281 62.8406C61.2655 64.4031 58.7279 64.4031 57.1653 62.8406L41.3395 47.0023C37.0393 50.1525 31.7391 52.0025 26.0013 52.0025C11.6381 52.0025 0 40.3645 0 26.0013C0 11.6381 11.6381 0 26.0013 0C40.3645 0 52.0025 11.6381 52.0025 26.0013ZM26.0013 44.0022C28.3652 44.0022 30.7059 43.5365 32.8899 42.6319C35.0739 41.7273 37.0583 40.4013 38.7298 38.7298C40.4013 37.0583 41.7273 35.0739 42.6319 32.8899C43.5365 30.7059 44.0022 28.3652 44.0022 26.0013C44.0022 23.6374 43.5365 21.2966 42.6319 19.1126C41.7273 16.9287 40.4013 14.9443 38.7298 13.2727C37.0583 11.6012 35.0739 10.2753 32.8899 9.37063C30.7059 8.466 28.3652 8.00039 26.0013 8.00039C23.6374 8.00039 21.2966 8.466 19.1126 9.37063C16.9287 10.2753 14.9443 11.6012 13.2727 13.2727C11.6012 14.9443 10.2753 16.9287 9.37063 19.1126C8.466 21.2966 8.00039 23.6374 8.00039 26.0013C8.00039 28.3652 8.466 30.7059 9.37063 32.8899C10.2753 35.0739 11.6012 37.0583 13.2727 38.7298C14.9443 40.4013 16.9287 41.7273 19.1126 42.6319C21.2966 43.5365 23.6374 44.0022 26.0013 44.0022Z" fill="black"/>
</svg>
